<svg id="Layer_1" height="512" viewBox="0 0 512 512" width="512" xmlns="http://www.w3.org/2000/svg" data-name="Layer 1"><path d="m250.128 378.356a46.4 46.4 0 0 0 33.029-13.681l3.535 3.535-3.534-3.535a46.728 46.728 0 0 0 7.275-56.638l-40.3-68.8-40.3 68.8a46.71 46.71 0 0 0 40.3 70.319zm7.758-30.685a23.819 23.819 0 0 0 15.556-17.779 5 5 0 0 1 9.8 1.98 33.812 33.812 0 0 1 -22.107 25.255 5 5 0 1 1 -3.252-9.456z"/><path d="m348.019 97.875 76.36 39.394 10.957-24.79-76.849-37.315z"/><path d="m322.768 93.053v-26.8a39.119 39.119 0 0 0 -39.075-39.074h-167.955a39.118 39.118 0 0 0 -39.074 39.073v379.5a39.118 39.118 0 0 0 39.074 39.074h279.8a39.118 39.118 0 0 0 39.074-39.074v-291.952l-109.136-56.3a5 5 0 0 1 -2.708-4.447zm-210.823-14.753a18.242 18.242 0 0 1 18.222-18.222h140.289a18.243 18.243 0 0 1 18.223 18.222v47.811a5 5 0 0 1 -5 5h-166.734a5 5 0 0 1 -5-5zm7.282 262.939a5 5 0 0 1 -10 0v-117.525a5 5 0 0 1 10 0zm0-135.438a5 5 0 0 1 -10 0v-7.828a5 5 0 0 1 10 0zm250.449-.595v202.29a19.322 19.322 0 0 1 -19.3 19.3h-189.476a19.321 19.321 0 0 1 -19.3-19.3v-202.296a19.321 19.321 0 0 1 19.3-19.3h189.476a19.322 19.322 0 0 1 19.3 19.3z"/><path d="m151.6 205.2v202.29a9.309 9.309 0 0 0 9.3 9.3h189.476a9.31 9.31 0 0 0 9.3-9.3v-202.29a9.311 9.311 0 0 0 -9.3-9.3h-189.476a9.31 9.31 0 0 0 -9.3 9.3zm49.6 97.778 44.618-76.168a5 5 0 0 1 8.629 0l44.619 76.168a56.71 56.71 0 1 1 -97.866 0z"/></svg>